<?xml version="1.0" ?><!DOCTYPE svg  PUBLIC '-//W3C//DTD SVG 1.1//EN'  'http://www.w3.org/Graphics/SVG/1.1/DTD/svg11.dtd'><svg enable-background="new 0 0 48 48" height="48px" id="_x3C_Layer_x3E_" version="1.1" viewBox="0 0 48 48" width="48px" xml:space="preserve" xmlns="http://www.w3.org/2000/svg" xmlns:xlink="http://www.w3.org/1999/xlink"><g id="clock_x2C__time"><path d="M24,46C11.869,46,2,36.131,2,24c0-6.952,3.183-13.348,8.732-17.55c0.218-0.167,0.532-0.124,0.7,0.097   c0.167,0.22,0.124,0.534-0.097,0.7C6.038,11.258,3,17.364,3,24c0,11.58,9.421,21,21,21s21-9.42,21-21S35.579,3,24,3   c-3.798,0-7.519,1.024-10.76,2.963c-0.238,0.14-0.545,0.064-0.686-0.173c-0.143-0.237-0.064-0.544,0.172-0.686   C16.124,3.074,20.021,2,24,2c12.131,0,22,9.869,22,22S36.131,46,24,46z" fill="#546E7A"/><path d="M24,43C13.523,43,5,34.477,5,24S13.523,5,24,5s19,8.523,19,19c0,4.14-1.309,8.075-3.784,11.38   c-0.167,0.222-0.48,0.266-0.7,0.101c-0.221-0.166-0.266-0.479-0.101-0.7C40.761,31.649,42,27.922,42,24c0-9.925-8.075-18-18-18   S6,14.075,6,24s8.075,18,18,18c4.801,0,9.315-1.867,12.712-5.258c0.195-0.194,0.512-0.195,0.707,0.001   c0.195,0.195,0.195,0.512,0,0.707C33.833,41.029,29.067,43,24,43z" fill="#546E7A"/><g><g><g><circle cx="31.5" cy="11.01" fill="#546E7A" r="0.5"/><circle cx="31.5" cy="11.01" fill="#546E7A" r="1"/></g><g><circle cx="16.5" cy="36.99" fill="#546E7A" r="0.5"/><circle cx="16.5" cy="36.99" fill="#546E7A" r="1"/></g></g><g><g><circle cx="36.99" cy="16.5" fill="#546E7A" r="0.5"/><circle cx="36.99" cy="16.5" fill="#546E7A" r="1"/></g><g><circle cx="11.01" cy="31.5" fill="#546E7A" r="0.5"/><circle cx="11.01" cy="31.5" fill="#546E7A" r="1"/></g></g><g><g><circle cx="39" cy="24" fill="#546E7A" r="0.5"/><circle cx="39" cy="24" fill="#546E7A" r="1"/></g><g><circle cx="9" cy="24" fill="#546E7A" r="0.5"/><circle cx="9" cy="24" fill="#546E7A" r="1"/></g></g><g><g><circle cx="36.99" cy="31.5" fill="#546E7A" r="0.5"/><circle cx="36.99" cy="31.5" fill="#546E7A" r="1"/></g><g><circle cx="11.01" cy="16.5" fill="#546E7A" r="0.5"/><circle cx="11.01" cy="16.5" fill="#546E7A" r="1"/></g></g><g><g><circle cx="31.5" cy="36.99" fill="#546E7A" r="0.5"/><circle cx="31.5" cy="36.99" fill="#546E7A" r="1"/></g><g><circle cx="16.5" cy="11.01" fill="#546E7A" r="0.5"/><circle cx="16.5" cy="11.01" fill="#546E7A" r="1"/></g></g><g><g><circle cx="24" cy="39" fill="#546E7A" r="0.5"/><circle cx="24" cy="39" fill="#546E7A" r="1"/></g><g><circle cx="24" cy="9" fill="#546E7A" r="0.5"/><circle cx="24" cy="9" fill="#546E7A" r="1"/></g></g></g><path d="M34.943,18.268c-0.129-0.245-0.431-0.34-0.676-0.211l-7.891,4.133c0.202,0.265,0.357,0.563,0.463,0.887   l7.893-4.134C34.977,18.815,35.071,18.513,34.943,18.268z" fill="#546E7A"/><path d="M22.958,21.733l-4.055-5.529c-0.163-0.223-0.478-0.271-0.699-0.107c-0.223,0.164-0.271,0.477-0.107,0.699   l4.057,5.532C22.379,22.079,22.649,21.875,22.958,21.733z" fill="#546E7A"/><path d="M24,27c-1.654,0-3-1.346-3-3s1.346-3,3-3s3,1.346,3,3S25.654,27,24,27z M24,22c-1.103,0-2,0.897-2,2   s0.897,2,2,2s2-0.897,2-2S25.103,22,24,22z" fill="#546E7A"/></g></svg>