<?xml version="1.0" ?><!DOCTYPE svg  PUBLIC '-//W3C//DTD SVG 1.1//EN'  'http://www.w3.org/Graphics/SVG/1.1/DTD/svg11.dtd'><svg enable-background="new 0 0 48 48" height="48px" id="_x3C_Layer_x3E_" version="1.1" viewBox="0 0 48 48" width="48px" xml:space="preserve" xmlns="http://www.w3.org/2000/svg" xmlns:xlink="http://www.w3.org/1999/xlink"><g id="document_x2C__file"><path d="M41,46H12c-0.551,0-1-0.449-1-1v-1.5c0-0.276,0.224-0.5,0.5-0.5s0.5,0.224,0.5,0.5V45h29V7h-2.5   C38.223,7,38,6.776,38,6.5S38.223,6,38.5,6H41c0.551,0,1,0.449,1,1v38C42,45.551,41.551,46,41,46z" fill="#546E7A"/><path d="M36,42H7c-0.551,0-1-0.449-1-1V10.293L14.292,2H36c0.551,0,1,0.449,1,1v38C37,41.551,36.551,42,36,42z    M36,41v0.5V41L36,41z M7,10.707V41h29V3H14.707L7,10.707z" fill="#546E7A"/><path d="M14,11H6.5c-0.202,0-0.385-0.122-0.462-0.309c-0.078-0.187-0.035-0.402,0.108-0.545l8-8   c0.195-0.195,0.512-0.195,0.707,0s0.195,0.512,0,0.707L7.707,10H14V5.5C14,5.224,14.224,5,14.5,5S15,5.224,15,5.5V10   C15,10.551,14.551,11,14,11z" fill="#546E7A"/><g><path d="M30.5,27h-18c-0.276,0-0.5-0.224-0.5-0.5s0.224-0.5,0.5-0.5h18c0.276,0,0.5,0.224,0.5,0.5    S30.776,27,30.5,27z" fill="#546E7A"/><path d="M30.5,24h-18c-0.276,0-0.5-0.224-0.5-0.5s0.224-0.5,0.5-0.5h18c0.276,0,0.5,0.224,0.5,0.5    S30.776,24,30.5,24z" fill="#546E7A"/><path d="M30.5,21h-18c-0.276,0-0.5-0.224-0.5-0.5s0.224-0.5,0.5-0.5h18c0.276,0,0.5,0.224,0.5,0.5    S30.776,21,30.5,21z" fill="#546E7A"/><path d="M25.5,30h-13c-0.276,0-0.5-0.224-0.5-0.5s0.224-0.5,0.5-0.5h13c0.276,0,0.5,0.224,0.5,0.5    S25.776,30,25.5,30z" fill="#546E7A"/><path d="M25.5,15h-8c-0.276,0-0.5-0.224-0.5-0.5s0.224-0.5,0.5-0.5h8c0.276,0,0.5,0.224,0.5,0.5S25.776,15,25.5,15    z" fill="#546E7A"/><path d="M30.5,18h-18c-0.276,0-0.5-0.224-0.5-0.5s0.224-0.5,0.5-0.5h18c0.276,0,0.5,0.224,0.5,0.5    S30.776,18,30.5,18z" fill="#546E7A"/></g></g></svg>