<?xml version="1.0" ?><!DOCTYPE svg  PUBLIC '-//W3C//DTD SVG 1.1//EN'  'http://www.w3.org/Graphics/SVG/1.1/DTD/svg11.dtd'><svg enable-background="new 0 0 48 48" height="48px" id="_x3C_Layer_x3E_" version="1.1" viewBox="0 0 48 48" width="48px" xml:space="preserve" xmlns="http://www.w3.org/2000/svg" xmlns:xlink="http://www.w3.org/1999/xlink"><g id="result_x2C__clipboard_x2C__check_mark"><path d="M40.5,46h-33C6.673,46,6,45.327,6,44.5v-38C6,5.673,6.673,5,7.5,5h7.042c0.276,0,0.5,0.224,0.5,0.5   S14.818,6,14.542,6H7.5C7.224,6,7,6.224,7,6.5v38C7,44.776,7.224,45,7.5,45h33c0.276,0,0.5-0.224,0.5-0.5v-38   C41,6.224,40.776,6,40.5,6h-6.957c-0.276,0-0.5-0.224-0.5-0.5s0.224-0.5,0.5-0.5H40.5C41.327,5,42,5.673,42,6.5v38   C42,45.327,41.327,46,40.5,46z" fill="#546E7A"/><path d="M32.319,43H10c-0.551,0-1-0.449-1-1V8c0-0.551,0.449-1,1-1h4.5C14.776,7,15,7.224,15,7.5S14.776,8,14.5,8   H10v34h22.319L38,37.266V8h-4.5C33.224,8,33,7.776,33,7.5S33.224,7,33.5,7H38c0.551,0,1,0.449,1,1v29.266   c0,0.296-0.13,0.576-0.358,0.767l-5.682,4.735C32.78,42.918,32.553,43,32.319,43z" fill="#546E7A"/><g><path d="M32.702,42.774c-0.101,0-0.203-0.022-0.299-0.067C32.154,42.59,32,42.348,32,42.073V38    c0-0.551,0.449-1,1-1h4.947c0.299,0,0.558,0.182,0.659,0.463c0.101,0.281,0.018,0.585-0.212,0.776l-5.246,4.372    C33.019,42.718,32.862,42.774,32.702,42.774z M33,38v3.433L37.119,38H33z" fill="#546E7A"/></g><g><path d="M31.015,10h-14c-0.551,0-1-0.449-1-1V5c0-0.551,0.449-1,1-1h3.851c0.575-1.209,1.799-2,3.149-2    c1.351,0,2.575,0.791,3.15,2h3.85c0.551,0,1,0.449,1,1v4C32.015,9.551,31.566,10,31.015,10z M17.015,5v4h14V5h-4.184    c-0.211,0-0.4-0.133-0.471-0.333C26.005,3.67,25.063,3,24.015,3c-1.048,0-1.99,0.67-2.344,1.667C21.6,4.867,21.411,5,21.199,5    H17.015z" fill="#546E7A"/></g><g><path d="M18.5,35h-4c-0.276,0-0.5-0.224-0.5-0.5v-4c0-0.276,0.224-0.5,0.5-0.5h4c0.276,0,0.5,0.224,0.5,0.5v4    C19,34.776,18.776,35,18.5,35z M15,34h3v-3h-3V34z" fill="#546E7A"/><path d="M18.5,27h-4c-0.276,0-0.5-0.224-0.5-0.5v-4c0-0.276,0.224-0.5,0.5-0.5h4c0.276,0,0.5,0.224,0.5,0.5v4    C19,26.776,18.776,27,18.5,27z M15,26h3v-3h-3V26z" fill="#546E7A"/><path d="M18.5,19h-4c-0.276,0-0.5-0.224-0.5-0.5v-4c0-0.276,0.224-0.5,0.5-0.5h4c0.276,0,0.5,0.224,0.5,0.5v4    C19,18.776,18.776,19,18.5,19z M15,18h3v-3h-3V18z" fill="#546E7A"/><path d="M33.5,34h-12c-0.276,0-0.5-0.224-0.5-0.5s0.224-0.5,0.5-0.5h12c0.276,0,0.5,0.224,0.5,0.5    S33.776,34,33.5,34z" fill="#546E7A"/><path d="M33.5,32h-12c-0.276,0-0.5-0.224-0.5-0.5s0.224-0.5,0.5-0.5h12c0.276,0,0.5,0.224,0.5,0.5    S33.776,32,33.5,32z" fill="#546E7A"/><path d="M33.5,26h-12c-0.276,0-0.5-0.224-0.5-0.5s0.224-0.5,0.5-0.5h12c0.276,0,0.5,0.224,0.5,0.5    S33.776,26,33.5,26z" fill="#546E7A"/><path d="M33.5,24h-12c-0.276,0-0.5-0.224-0.5-0.5s0.224-0.5,0.5-0.5h12c0.276,0,0.5,0.224,0.5,0.5    S33.776,24,33.5,24z" fill="#546E7A"/><path d="M33.5,18h-12c-0.276,0-0.5-0.224-0.5-0.5s0.224-0.5,0.5-0.5h12c0.276,0,0.5,0.224,0.5,0.5    S33.776,18,33.5,18z" fill="#546E7A"/><path d="M33.5,16h-12c-0.276,0-0.5-0.224-0.5-0.5s0.224-0.5,0.5-0.5h12c0.276,0,0.5,0.224,0.5,0.5    S33.776,16,33.5,16z" fill="#546E7A"/></g></g></svg>